<svg width="261" height="34" viewBox="0 0 261 34" xmlns="http://www.w3.org/2000/svg"><title>tower-logo-claim</title><g fill="#8B939C" fill-rule="evenodd"><path d="M13 30.94V6.91h7V1L0 1.042V6.91h7v24.03h6zm89 0V26H90v-7.09h9V14h-9V5.91h12l-.128-4.883H84V30.94h18zm3 0L105.045 1l10.05.042c5.812 0 9.362 4.272 9.533 9.532 0 4.022-2.223 6.448-6.354 8.336l6.61 12.03h-6.35L113 18.91h-2v12.03h-6zM115 14h-4V6h4c2.22 0 4.016 1.58 4.016 4.137C119.016 12.28 117.22 14 115 14zM56.265 30.94c-3.99-.473-7.432-3.848-7.765-8.312C48.14 17.808 47 1 47 1h6.5s1.383 19.11 1.5 20.89c.158 2.396 1.27 4.09 2.933 4.09 1.135 0 3.067-1.158 3.067-4.07V9h6v12.91c0 2.912 1.932 4.07 3.067 4.07 1.664 0 2.775-1.694 2.933-4.09C73.117 20.11 74.5 1 74.5 1H81s-1.14 16.808-1.5 21.628c-.333 4.464-3.774 7.84-7.765 8.312h-2.272c-2.17-.2-4.12-.97-5.463-2.945-1.344 1.975-3.294 2.745-5.463 2.945h-2.272zm-24.947 0C25.522 30.348 21 25.452 21 19.5v-7C21 6.15 26.15 1 32.5 1S44 6.15 44 12.5v7c0 5.952-4.522 10.848-10.318 11.44h-2.364zM32.5 7c3.033 0 5.5 2.467 5.5 5.5v7c0 3.033-2.467 5.5-5.5 5.5S27 22.533 27 19.5v-7C27 9.467 29.467 7 32.5 7zM139.43 11h1.526l3.01-9.464h-1.358l-2.016 6.594c-.126.42-.28 1.022-.406 1.568-.112-.532-.266-1.148-.392-1.568l-2.03-6.594h-1.344L139.43 11zm5.782-2.814c0 1.96 1.232 2.996 2.968 2.996.798 0 1.456-.126 2.198-.364l-.252-1.106c-.644.196-1.274.336-1.946.336-1.05 0-1.68-.574-1.68-1.862v-.42h4.27V6.282c0-1.582-1.246-2.674-2.786-2.674-1.526 0-2.772 1.022-2.772 2.94v1.638zm1.288-1.428V6.45c0-1.12.616-1.708 1.484-1.708.896 0 1.498.63 1.498 1.54v.476H146.5zM152.548 11h1.288V6.296c0-.924.588-1.554 1.47-1.554.252 0 .602.056.77.098l.238-1.106c-.252-.056-.686-.126-1.022-.126-1.526 0-2.744 1.064-2.744 2.688V11zm4.536-.196c.7.252 1.386.378 2.1.378 1.778 0 2.604-1.078 2.604-2.128 0-2.562-3.234-1.96-3.234-3.43 0-.504.336-.882 1.106-.882.546 0 1.036.112 1.568.28l.294-1.092c-.616-.21-1.218-.322-1.862-.322-1.498 0-2.408.854-2.408 2.016 0 2.492 3.234 1.876 3.234 3.458 0 .56-.518.966-1.302.966-.63 0-1.232-.14-1.862-.336l-.238 1.092zm7.042-8.246c.434 0 .812-.364.812-.798 0-.434-.378-.784-.812-.784-.448 0-.812.35-.812.784 0 .448.364.798.812.798zM163.482 11h1.288V3.79h-1.288V11zm3.206-2.982c0 2.114 1.246 3.164 2.926 3.164 1.68 0 2.926-1.05 2.926-3.164V6.772c0-2.114-1.246-3.164-2.926-3.164-1.68 0-2.926 1.036-2.926 3.164v1.246zm1.288-.07V6.842c0-1.526.644-2.1 1.638-2.1 1.008 0 1.638.574 1.638 2.1v1.106c0 1.512-.658 2.1-1.638 2.1-1.008 0-1.638-.588-1.638-2.1zM174.388 11h1.288V6.604c0-1.246.616-1.862 1.498-1.862.868 0 1.484.616 1.484 1.862V11h1.288V6.534c0-1.904-1.232-2.926-2.772-2.926-1.512 0-2.786 1.022-2.786 2.926V11zm10.766-2.982c0 2.184 1.246 3.164 3.01 3.164.686 0 1.344-.126 2.044-.336l-.238-1.078c-.588.168-1.176.28-1.75.28-1.176 0-1.778-.63-1.778-2.086V6.828c0-1.47.602-2.086 1.778-2.086.588 0 1.162.14 1.75.294l.238-1.092c-.672-.21-1.344-.336-2.044-.336-1.764 0-3.01.966-3.01 3.15v1.26zm6.594 0c0 2.114 1.246 3.164 2.926 3.164 1.68 0 2.926-1.05 2.926-3.164V6.772c0-2.114-1.246-3.164-2.926-3.164-1.68 0-2.926 1.036-2.926 3.164v1.246zm1.288-.07V6.842c0-1.526.644-2.1 1.638-2.1 1.008 0 1.638.574 1.638 2.1v1.106c0 1.512-.658 2.1-1.638 2.1-1.008 0-1.638-.588-1.638-2.1zM199.448 11h1.288V6.604c0-1.246.616-1.862 1.498-1.862.868 0 1.484.616 1.484 1.862V11h1.288V6.534c0-1.904-1.232-2.926-2.772-2.926-1.512 0-2.786 1.022-2.786 2.926V11zm7.966 0h1.274V4.714h1.414V3.79h-1.414V1.466l-1.274.266V3.79h-1.218l.294.924h.924V11zm3.962 0h1.288V6.296c0-.924.588-1.554 1.47-1.554.252 0 .602.056.77.098l.238-1.106c-.252-.056-.686-.126-1.022-.126-1.526 0-2.744 1.064-2.744 2.688V11zm4.774-2.982c0 2.114 1.246 3.164 2.926 3.164 1.68 0 2.926-1.05 2.926-3.164V6.772c0-2.114-1.246-3.164-2.926-3.164-1.68 0-2.926 1.036-2.926 3.164v1.246zm1.288-.07V6.842c0-1.526.644-2.1 1.638-2.1 1.008 0 1.638.574 1.638 2.1v1.106c0 1.512-.658 2.1-1.638 2.1-1.008 0-1.638-.588-1.638-2.1zM223.92 11h1.288V.57l-1.288.28V11zm-86.884 17.578c.126 1.596 1.092 2.604 2.52 2.604.798 0 1.484-.378 1.89-1.022.42.644 1.092 1.022 1.89 1.022 1.442 0 2.408-.98 2.534-2.59l.35-4.802h-1.288l-.322 4.704c-.056.91-.504 1.54-1.274 1.54-.756 0-1.26-.644-1.26-1.554v-4.172h-1.26v4.172c0 .91-.49 1.554-1.246 1.554-.77 0-1.218-.63-1.274-1.54l-.322-4.704H136.7l.336 4.788zm11.62-6.02c.434 0 .812-.364.812-.798 0-.434-.378-.784-.812-.784-.448 0-.812.35-.812.784 0 .448.364.798.812.798zM148.012 31h1.288v-7.21h-1.288V31zm3.766 0h1.274v-6.286h1.414v-.924h-1.414v-2.324l-1.274.266v2.058h-1.218l.294.924h.924V31zm4.032 0h1.288v-5.768c.504-.294 1.022-.49 1.554-.49.854 0 1.442.406 1.442 1.82V31h1.288v-4.522c0-2.072-1.176-2.87-2.632-2.87-.644 0-1.274.266-1.652.504v-3.36h-1.288V31zm10.85-3.612c0 2.562 1.568 3.794 3.668 3.794 1.036 0 2.1-.238 2.968-.532v-4.718h-2.282v1.036h1.036v2.8c-.532.126-1.036.238-1.708.238-1.4 0-2.352-.812-2.352-2.716v-2.072c0-1.876.952-2.688 2.352-2.688.924 0 1.722.196 2.45.42l.294-1.12c-.966-.28-1.75-.476-2.758-.476-2.1 0-3.668 1.232-3.668 3.794v2.24zm9.338-4.83c.434 0 .812-.364.812-.798 0-.434-.378-.784-.812-.784-.448 0-.812.35-.812.784 0 .448.364.798.812.798zM175.354 31h1.288v-7.21h-1.288V31zm3.766 0h1.274v-6.286h1.414v-.924h-1.414v-2.324l-1.274.266v2.058h-1.218l.294.924h.924V31zm11.984-3.304v-1.12h-4.522v1.12h4.522zM196.662 31h1.288v-4.396c0-1.246.518-1.862 1.344-1.862.84 0 1.372.714 1.372 2.1V31h1.274v-4.158c0-1.386.532-2.1 1.358-2.1.826 0 1.358.616 1.358 1.862V31h1.288v-4.536c0-1.904-1.176-2.856-2.646-2.856-.91 0-1.61.518-2.002 1.372-.378-.854-1.078-1.372-2.002-1.372-1.428 0-2.632.952-2.632 2.856V31zm10.948-2.156c0 1.316 1.148 2.338 2.674 2.338 1.442 0 2.632-1.022 2.632-2.338v-2.576c0-1.652-1.05-2.66-2.66-2.66-.742 0-1.484.168-2.184.392l.28 1.064c.602-.182 1.274-.322 1.904-.322.91 0 1.386.546 1.386 1.526v.392h-1.414c-1.554 0-2.618.77-2.618 2.184zm1.316-.014c0-.644.378-1.162 1.302-1.162h1.414v1.176c0 .644-.546 1.204-1.358 1.204-.854 0-1.358-.588-1.358-1.218zm5.656-.658c0 1.946 1.33 3.01 2.856 3.01 1.526 0 2.828-1.064 2.828-3.01v-7.42h-1.274v3.36c-.378-.238-1.008-.504-1.652-.504-1.456 0-2.758.952-2.758 3.024v1.54zm1.288-.07v-1.4c0-1.456.714-1.96 1.582-1.96.532 0 1.036.196 1.54.49v2.87c0 1.33-.672 1.946-1.554 1.946s-1.568-.616-1.568-1.946zm6.062.084c0 1.96 1.232 2.996 2.968 2.996.798 0 1.456-.126 2.198-.364l-.252-1.106c-.644.196-1.274.336-1.946.336-1.05 0-1.68-.574-1.68-1.862v-.42h4.27v-1.484c0-1.582-1.246-2.674-2.786-2.674-1.526 0-2.772 1.022-2.772 2.94v1.638zm1.288-1.428v-.308c0-1.12.616-1.708 1.484-1.708.896 0 1.498.63 1.498 1.54v.476h-2.982zm9.212 1.428c0 1.96 1.232 2.996 2.968 2.996.798 0 1.456-.126 2.198-.364l-.252-1.106c-.644.196-1.274.336-1.946.336-1.05 0-1.68-.574-1.68-1.862v-.42h4.27v-1.484c0-1.582-1.246-2.674-2.786-2.674-1.526 0-2.772 1.022-2.772 2.94v1.638zm1.288-1.428v-.308c0-1.12.616-1.708 1.484-1.708.896 0 1.498.63 1.498 1.54v.476h-2.982zm5.67 2.086c0 1.316 1.148 2.338 2.674 2.338 1.442 0 2.632-1.022 2.632-2.338v-2.576c0-1.652-1.05-2.66-2.66-2.66-.742 0-1.484.168-2.184.392l.28 1.064c.602-.182 1.274-.322 1.904-.322.91 0 1.386.546 1.386 1.526v.392h-1.414c-1.554 0-2.618.77-2.618 2.184zm1.316-.014c0-.644.378-1.162 1.302-1.162h1.414v1.176c0 .644-.546 1.204-1.358 1.204-.854 0-1.358-.588-1.358-1.218zm5.418 1.974c.7.252 1.386.378 2.1.378 1.778 0 2.604-1.078 2.604-2.128 0-2.562-3.234-1.96-3.234-3.43 0-.504.336-.882 1.106-.882.546 0 1.036.112 1.568.28l.294-1.092c-.616-.21-1.218-.322-1.862-.322-1.498 0-2.408.854-2.408 2.016 0 2.492 3.234 1.876 3.234 3.458 0 .56-.518.966-1.302.966-.63 0-1.232-.14-1.862-.336l-.238 1.092zm6.384-2.324c.21 1.526.966 2.52 2.548 2.52h.588l-.392 2.954h1.274l1.316-10.164h-1.288l-.756 6.062h-.714c-.826 0-1.176-.574-1.302-1.498l-.644-4.564h-1.288l.658 4.69zm7.532 2.674c.448 0 .826-.378.826-.826 0-.462-.378-.798-.826-.798-.434 0-.812.336-.812.798 0 .448.378.826.812.826z"/></g></svg>